<svg width="56" height="56" viewBox="0 0 56 56" fill="none" xmlns="http://www.w3.org/2000/svg">
<path d="M27.6833 5.61746C35.0759 5.61746 35.9498 5.64356 38.8682 5.774C41.5685 5.89574 43.0364 6.3479 44.0063 6.72179C45.2996 7.21745 46.2173 7.81742 47.1872 8.78264C48.1571 9.74783 48.7514 10.6609 49.2581 11.9478C49.634 12.9217 50.0882 14.3738 50.2106 17.0608C50.3417 19.9651 50.3681 20.8346 50.3681 28.191C50.3681 35.5475 50.3417 36.4169 50.2106 39.3212C50.0882 42.008 49.634 43.469 49.2581 44.4341C48.7601 45.7211 48.1571 46.634 47.1872 47.5994C46.2173 48.5645 45.2996 49.1558 44.0063 49.6601C43.0277 50.0342 41.5685 50.4863 38.8682 50.6081C35.9498 50.7383 35.0759 50.7644 27.6833 50.7644C20.2905 50.7644 19.4167 50.7383 16.4981 50.6081C13.7979 50.4863 12.3299 50.0342 11.3599 49.6601C10.0666 49.1645 9.14908 48.5645 8.17912 47.5994C7.20916 46.634 6.61495 45.7211 6.10813 44.4341C5.73238 43.4603 5.27797 42.008 5.15563 39.3212C5.02456 36.4169 4.99834 35.5475 4.99834 28.191C4.99834 20.8346 5.02456 19.9651 5.15563 17.0608C5.27797 14.3738 5.73238 12.913 6.10813 11.9478C6.60622 10.6609 7.20916 9.74783 8.17912 8.78264C9.14908 7.81742 10.0666 7.22615 11.3599 6.72179C12.3386 6.3479 13.7979 5.89574 16.4981 5.774C19.4167 5.64356 20.2905 5.61746 27.6833 5.61746ZM27.6833 0.652344C20.1682 0.652344 19.2244 0.687126 16.2709 0.81756C13.326 0.947991 11.3162 1.41755 9.55105 2.09579C7.73347 2.80013 6.18676 3.73925 4.64881 5.26964C3.11086 6.80006 2.16712 8.33915 1.4593 10.1478C0.777729 11.8956 0.305844 13.9043 0.174768 16.8347C0.0349529 19.7824 0 20.7129 0 28.1997C0 35.6864 0.0349529 36.617 0.166029 39.5561C0.297105 42.4865 0.768969 44.4863 1.45057 46.2428C2.15839 48.0515 3.10213 49.5905 4.64008 51.1211C6.17803 52.6514 7.72474 53.5904 9.54232 54.2948C11.2987 54.9731 13.3173 55.4426 16.2621 55.5731C19.2157 55.7036 20.1594 55.7384 27.6743 55.7384C35.1893 55.7384 36.1331 55.7036 39.0866 55.5731C42.0317 55.4426 44.0414 54.9731 45.8066 54.2948C47.624 53.5904 49.1708 52.6514 50.7089 51.1211C52.2467 49.5905 53.1905 48.0515 53.8982 46.2428C54.5798 44.4863 55.0517 42.4865 55.1828 39.5561C55.3139 36.617 55.349 35.6777 55.349 28.1997C55.349 20.7215 55.3139 19.7824 55.1828 16.8433C55.0517 13.913 54.5798 11.913 53.8982 10.1565C53.1905 8.34785 52.2467 6.80876 50.7089 5.27834C49.1708 3.74795 47.624 2.80883 45.8066 2.10449C44.0414 1.42624 42.0317 0.956688 39.0866 0.826254C36.1418 0.687126 35.1983 0.652344 27.6833 0.652344Z" fill="#650C0C"/>
<path d="M27.683 14.0527C19.836 14.0527 13.4657 20.3831 13.4657 28.2003C13.4657 36.0089 19.8273 42.3479 27.683 42.3479C35.5301 42.3479 41.9003 36.0176 41.9003 28.2003C41.8916 20.3831 35.5301 14.0527 27.683 14.0527ZM27.683 37.3826C22.5886 37.3826 18.4554 33.2699 18.4554 28.2003C18.4554 23.1308 22.5886 19.0179 27.683 19.0179C32.7776 19.0179 36.9107 23.1308 36.9107 28.2003C36.9107 33.2699 32.7776 37.3826 27.683 37.3826Z" fill="#650C0C"/>
<path d="M45.7802 13.4957C45.7802 15.3217 44.2949 16.8 42.4598 16.8C40.6247 16.8 39.1391 15.3217 39.1391 13.4957C39.1391 11.6696 40.6247 10.1914 42.4598 10.1914C44.2949 10.1914 45.7802 11.6696 45.7802 13.4957Z" fill="#650C0C"/>
</svg>
