<svg width="43" height="44" viewBox="0 0 43 44" fill="none" xmlns="http://www.w3.org/2000/svg">
<path d="M21.5916 4.22427C27.136 4.22427 27.7915 4.24488 29.9803 4.34786C32.0055 4.44397 33.1064 4.80094 33.8338 5.09611C34.8038 5.48742 35.4921 5.96108 36.2195 6.7231C36.9469 7.48509 37.3927 8.2059 37.7727 9.2219C38.0546 9.99076 38.3953 11.1372 38.4871 13.2584C38.5854 15.5513 38.6052 16.2378 38.6052 22.0455C38.6052 27.8533 38.5854 28.5396 38.4871 30.8325C38.3953 32.9536 38.0546 34.1071 37.7727 34.869C37.3992 35.885 36.9469 36.6058 36.2195 37.3679C35.4921 38.1298 34.8038 38.5966 33.8338 38.9948C33.0999 39.2901 32.0055 39.647 29.9803 39.7432C27.7915 39.846 27.136 39.8666 21.5916 39.8666C16.047 39.8666 15.3916 39.846 13.2026 39.7432C11.1775 39.647 10.0765 39.2901 9.34902 38.9948C8.37905 38.6035 7.69091 38.1298 6.96344 37.3679C6.23597 36.6058 5.79031 35.885 5.4102 34.869C5.12839 34.1002 4.78758 32.9536 4.69582 30.8325C4.59752 28.5396 4.57786 27.8533 4.57786 22.0455C4.57786 16.2378 4.59752 15.5513 4.69582 13.2584C4.78758 11.1372 5.12839 9.98389 5.4102 9.2219C5.78377 8.2059 6.23597 7.48509 6.96344 6.7231C7.69091 5.96108 8.37905 5.49429 9.34902 5.09611C10.083 4.80094 11.1775 4.44397 13.2026 4.34786C15.3916 4.24488 16.047 4.22427 21.5916 4.22427ZM21.5916 0.304443C15.9552 0.304443 15.2474 0.331903 13.0323 0.434877C10.8236 0.537849 9.31624 0.908552 7.99239 1.44401C6.6292 2.00006 5.46917 2.74148 4.31571 3.94968C3.16225 5.1579 2.45444 6.37298 1.92358 7.80087C1.4124 9.18071 1.05848 10.7665 0.960177 13.08C0.855316 15.4072 0.829102 16.1417 0.829102 22.0523C0.829102 27.9629 0.855316 28.6976 0.953623 31.0179C1.05193 33.3314 1.40583 34.9102 1.91703 36.2969C2.44789 37.7248 3.1557 38.9398 4.30916 40.1482C5.46262 41.3563 6.62266 42.0976 7.98584 42.6538C9.30315 43.1893 10.8171 43.5599 13.0257 43.6629C15.2409 43.766 15.9487 43.7934 21.5848 43.7934C27.2211 43.7934 27.9289 43.766 30.1441 43.6629C32.3529 43.5599 33.8602 43.1893 35.1841 42.6538C36.5471 42.0976 37.7072 41.3563 38.8608 40.1482C40.0141 38.9398 40.722 37.7248 41.2528 36.2969C41.764 34.9102 42.1179 33.3314 42.2162 31.0179C42.3145 28.6976 42.3409 27.956 42.3409 22.0523C42.3409 16.1485 42.3145 15.4072 42.2162 13.0868C42.1179 10.7734 41.764 9.19445 41.2528 7.80774C40.722 6.37984 40.0141 5.16477 38.8608 3.95655C37.7072 2.74834 36.5471 2.00693 35.1841 1.45088C33.8602 0.915415 32.3529 0.544715 30.1441 0.441741C27.9355 0.331903 27.2278 0.304443 21.5916 0.304443Z" fill="white"/>
<path d="M21.5914 10.8837C15.7061 10.8837 10.9284 15.8813 10.9284 22.0528C10.9284 28.2175 15.6996 33.222 21.5914 33.222C27.4767 33.222 32.2543 28.2244 32.2543 22.0528C32.2478 15.8813 27.4767 10.8837 21.5914 10.8837ZM21.5914 29.302C17.7706 29.302 14.6706 26.0551 14.6706 22.0528C14.6706 18.0506 17.7706 14.8035 21.5914 14.8035C25.4123 14.8035 28.5121 18.0506 28.5121 22.0528C28.5121 26.0551 25.4123 29.302 21.5914 29.302Z" fill="white"/>
<path d="M35.1643 10.4439C35.1643 11.8855 34.0503 13.0526 32.674 13.0526C31.2976 13.0526 30.1834 11.8855 30.1834 10.4439C30.1834 9.0023 31.2976 7.83529 32.674 7.83529C34.0503 7.83529 35.1643 9.0023 35.1643 10.4439Z" fill="white"/>
</svg>
