<svg width="40" height="40" viewBox="0 0 40 40" fill="none" xmlns="http://www.w3.org/2000/svg">
<g clip-path="url(#clip0_339_11)">
<path d="M39.9763 32.6103C39.8719 31.904 39.4019 31.2851 38.544 30.7171L29.719 24.8192C29.2639 24.5134 28.7342 24.3531 28.1822 24.3531C27.3317 24.3531 26.5336 24.7463 26.0412 25.409L23.751 28.5764C23.572 28.824 23.5273 29.1225 23.5197 29.4137C22.647 29.5376 20.1031 29.4647 15.933 25.3945C11.9047 21.4697 9.99495 18.5791 10.2411 16.7951C10.2859 16.7733 10.3157 16.7296 10.3605 16.7004C10.5694 16.6422 10.7633 16.5767 10.92 16.4528L14.083 14.1156C15.2095 13.2855 15.4332 11.669 14.5753 10.5113L8.25679 2.094C7.04083 0.477536 5.60852 0.302784 4.07179 1.59159C3.102 2.4071 1.4832 4.37308 0.81927 5.55267C0.453733 6.18615 0.297076 6.83418 0.364215 7.49679C0.132958 8.44336 -0.381775 11.2321 0.468653 15.1204C1.62493 20.3994 4.74317 25.4745 9.73385 30.1928C18.0889 38.0786 25.4221 39.2582 29.055 39.2582C31.1886 39.2582 32.6804 38.8723 33.3668 38.5955C34.0009 38.6247 34.635 38.4499 35.2467 38.0859C36.4403 37.4014 38.3948 35.7631 39.193 34.7801C39.8271 34.0229 40.0807 33.3093 39.9763 32.6103ZM38.0293 33.87C37.343 34.7146 35.5227 36.2364 34.4858 36.8334C34.3442 36.9136 34.2098 36.9718 34.068 37.0228C33.061 36.5931 31.2855 35.6903 30.7559 35.0423C30.5022 34.7291 30.0323 34.6782 29.704 34.9257C29.3833 35.1805 29.331 35.6321 29.5846 35.9524C30.0547 36.5277 30.9498 37.0957 31.7704 37.5398C31.1139 37.6782 30.2039 37.8019 29.0476 37.8019C25.6458 37.8019 18.7379 36.6733 10.7633 29.1444C-0.598112 18.397 1.55779 8.7856 1.84128 7.72252C1.86366 7.62785 1.87111 7.52591 1.85619 7.43126C1.80397 7.05262 1.88603 6.66671 2.11729 6.25895C2.69917 5.22499 4.19861 3.39738 5.04157 2.69836C5.42948 2.37797 5.76519 2.20323 6.03374 2.20323C6.14565 2.20323 6.4888 2.20323 7.05575 2.9532L13.3818 11.3705C13.7622 11.8875 13.6802 12.601 13.1952 12.9578L10.0696 15.2733C10.0546 15.2805 10.0323 15.2878 10.0173 15.2952C9.18928 14.6762 8.06283 13.7442 7.70476 13.2127C7.48096 12.8777 7.01845 12.7831 6.67529 13.0015C6.33213 13.22 6.23516 13.6714 6.45895 14.0063C6.94385 14.7272 8.1076 15.681 8.85359 16.249C8.25679 18.6228 10.1442 21.7902 14.9036 26.4211C18.6932 30.1201 21.4533 30.8918 23.1019 30.8918C23.8256 30.8918 24.3702 30.7317 24.6313 30.586C24.8327 30.4768 24.967 30.2803 25.0043 30.0617C25.0193 29.9598 25.0267 29.8216 25.0267 29.6613C25.0267 29.5739 25.0267 29.421 25.0416 29.341L27.2796 26.2463C27.6227 25.7877 28.3836 25.6711 28.8984 26.0133L37.7234 31.904C38.2083 32.2317 38.4769 32.5302 38.5216 32.8069C38.544 33.0909 38.3874 33.4477 38.0293 33.87Z" fill="white"/>
<path d="M19.1495 9.12891C24.916 10.8473 29.4367 15.2308 31.2271 20.852C31.3242 21.165 31.6225 21.3616 31.9359 21.3616C32.0104 21.3616 32.085 21.3543 32.1596 21.3326C32.555 21.216 32.7713 20.8083 32.652 20.4223C30.7125 14.3424 25.8262 9.59492 19.5822 7.73817C19.1868 7.61437 18.769 7.84011 18.6498 8.21873C18.5304 8.60464 18.7542 9.0124 19.1495 9.12891Z" fill="white"/>
<path d="M20.1716 3.7337C28.825 5.72879 35.4345 12.5369 37.0234 21.0707C37.0907 21.4202 37.4039 21.6677 37.7545 21.6677C37.7993 21.6677 37.844 21.6677 37.8887 21.6532C38.2917 21.5803 38.5602 21.2017 38.493 20.8085C36.7997 11.7068 29.7427 4.44727 20.5147 2.31383C20.1119 2.22645 19.709 2.46674 19.6196 2.85265C19.5225 3.24585 19.7762 3.63905 20.1716 3.7337Z" fill="white"/>
</g>
<defs>
<clipPath id="clip0_339_11">
<rect width="40" height="40" fill="white"/>
</clipPath>
</defs>
</svg>
