<svg width="58" height="55" viewBox="0 0 58 55" fill="none" xmlns="http://www.w3.org/2000/svg">
<path fill-rule="evenodd" clip-rule="evenodd" d="M42.1202 32.9581C41.4262 32.6249 37.9251 30.9589 37.2623 30.7423C36.5996 30.5257 36.1381 30.4091 35.6662 31.0755C35.1943 31.7419 33.8341 33.2913 33.4211 33.7412C33.0082 34.191 32.5953 34.2543 31.884 33.9111C29.7983 33.1146 27.8727 31.9758 26.1933 30.5457C24.6427 29.1688 23.3132 27.5787 22.2481 25.8274C21.8352 25.161 22.203 24.7778 22.5604 24.4379C22.9178 24.098 23.2543 23.6415 23.6256 23.245C23.912 22.8999 24.1457 22.5173 24.3196 22.1087C24.4139 21.9209 24.4579 21.7134 24.4476 21.5051C24.4373 21.2968 24.3731 21.0943 24.2606 20.9158C24.0836 20.5826 22.6645 17.2239 22.0746 15.8577C21.4847 14.4915 20.9156 14.7114 20.4784 14.6881C20.0412 14.6648 19.5936 14.6648 19.1182 14.6648C18.7588 14.674 18.4052 14.7545 18.0798 14.9013C17.7543 15.0481 17.464 15.258 17.2271 15.5178C16.4276 16.2455 15.7942 17.1248 15.3672 18.0999C14.9401 19.075 14.7286 20.1247 14.7462 21.1824C14.9764 23.7509 15.9821 26.199 17.6401 28.2265C20.6813 32.6046 24.8557 36.1481 29.7535 38.5094C31.0736 39.0564 32.423 39.5358 33.7959 39.9456C35.2423 40.368 36.7715 40.4604 38.2617 40.2155C39.2491 40.0227 40.1841 39.6353 41.0077 39.0778C41.8313 38.5203 42.5256 37.8049 43.0466 36.9767C43.5103 35.9589 43.6539 34.833 43.4596 33.7379C43.2826 33.4546 42.8107 33.2847 42.0994 32.9415L42.1202 32.9581ZM29.1809 49.9253C24.9564 49.9253 20.8096 48.8343 17.1751 46.7664L16.3146 46.2766L7.38651 48.5258L9.77032 40.1655L9.2082 39.3092C6.42786 35.0537 5.19905 30.0316 5.71494 25.0324C6.23084 20.0332 8.46219 15.3404 12.0582 11.6917C15.6542 8.04308 20.4109 5.64549 25.5806 4.8759C30.7503 4.1063 36.0397 5.00835 40.6173 7.44022C45.1949 9.8721 48.8011 13.6959 50.8689 18.3105C52.9368 22.925 53.3491 28.0687 52.0409 32.9328C50.7328 37.7969 47.7784 42.1056 43.6423 45.1815C39.5061 48.2574 34.4227 49.9261 29.1913 49.9253H29.1809ZM49.2578 7.99388C44.3897 3.31922 37.9185 0.502668 31.049 0.0686169C24.1794 -0.365434 17.3797 1.61259 11.9158 5.63443C6.45185 9.65627 2.69609 15.4478 1.34773 21.9308C-0.000616372 28.4138 1.15033 35.1465 4.5863 40.8753L0.561218 55.0001L15.6067 51.2115C19.7669 53.3935 24.4303 54.5391 29.1705 54.5436C34.7877 54.5459 40.2794 52.9482 44.9508 49.9527C49.6222 46.9572 53.2634 42.6984 55.4138 37.7152C57.5642 32.7319 58.1271 27.2482 57.0313 21.9577C55.9355 16.6671 53.2302 11.8076 49.2578 7.99388Z" fill="#FFF"/>
</svg>
