<svg xmlns="http://www.w3.org/2000/svg" width="20.177" height="20.274" viewBox="0 0 20.177 20.274">
  <g id="WhasApp" transform="translate(-4.112 -3.489)">
    <path id="Caminho_55" data-name="Caminho 55" d="M21.349,6.435A10.049,10.049,0,0,0,5.537,18.557L4.112,23.763l5.326-1.4a10.037,10.037,0,0,0,4.8,1.223h0A10.051,10.051,0,0,0,21.349,6.435ZM14.242,21.892h0a8.338,8.338,0,0,1-4.25-1.164l-.3-.181-3.16.829.844-3.081-.2-.316a8.35,8.35,0,1,1,7.073,3.913Z" fill="#fff" fill-rule="evenodd"/>
    <path id="Caminho_56" data-name="Caminho 56" d="M26.121,23.489c-.251-.126-1.485-.733-1.715-.817s-.4-.126-.565.126-.648.817-.795.984-.293.189-.544.063A6.856,6.856,0,0,1,20.484,22.6a7.566,7.566,0,0,1-1.4-1.739c-.146-.251-.016-.387.11-.512s.251-.293.377-.44a1.714,1.714,0,0,0,.251-.419.462.462,0,0,0-.021-.44c-.063-.126-.565-1.361-.774-1.864s-.411-.423-.565-.431-.314-.009-.481-.009a.922.922,0,0,0-.669.314,2.816,2.816,0,0,0-.879,2.094,4.882,4.882,0,0,0,1.025,2.6,11.189,11.189,0,0,0,4.288,3.79,14.412,14.412,0,0,0,1.431.529,3.44,3.44,0,0,0,1.581.1,2.585,2.585,0,0,0,1.694-1.194,2.1,2.1,0,0,0,.146-1.194C26.539,23.678,26.372,23.615,26.121,23.489Z" transform="translate(-7.298 -7.851)" fill="#fff" fill-rule="evenodd"/>
  </g>
</svg>
