<svg width="50" height="48" viewBox="0 0 50 48" fill="none" xmlns="http://www.w3.org/2000/svg">
<g clip-path="url(#clip0_337_9)">
<path fill-rule="evenodd" clip-rule="evenodd" d="M36.4552 28.7635C35.8465 28.4727 32.7753 27.0187 32.1939 26.8296C31.6126 26.6406 31.2078 26.5388 30.7938 27.1204C30.3799 27.7021 29.1867 29.0543 28.8245 29.4469C28.4623 29.8395 28.1001 29.8947 27.4761 29.5952C25.6465 28.9 23.9574 27.9062 22.4843 26.6581C21.1241 25.4564 19.9578 24.0687 19.0236 22.5403C18.6614 21.9587 18.984 21.6243 19.2975 21.3276C19.611 21.031 19.9063 20.6326 20.2319 20.2866C20.4832 19.9853 20.6881 19.6514 20.8407 19.2949C20.9234 19.131 20.962 18.9499 20.953 18.7681C20.944 18.5863 20.8876 18.4096 20.7889 18.2539C20.6337 17.963 19.3888 15.0318 18.8714 13.8395C18.3539 12.6472 17.8547 12.8391 17.4712 12.8187C17.0877 12.7984 16.6951 12.7984 16.2781 12.7984C15.9628 12.8064 15.6526 12.8767 15.3671 13.0048C15.0817 13.1329 14.827 13.3161 14.6192 13.5428C13.9179 14.1779 13.3623 14.9453 12.9877 15.7963C12.613 16.6473 12.4275 17.5634 12.4429 18.4865C12.6449 20.728 13.5271 22.8646 14.9814 24.6341C17.6492 28.4549 21.3109 31.5475 25.6072 33.6083C26.7652 34.0856 27.9489 34.504 29.1532 34.8616C30.422 35.2303 31.7634 35.3109 33.0706 35.0972C33.9367 34.9289 34.7569 34.5908 35.4794 34.1043C36.2019 33.6178 36.8109 32.9934 37.2679 32.2706C37.6747 31.3823 37.8006 30.3998 37.6301 29.444C37.4749 29.1968 37.0609 29.0485 36.437 28.7489L36.4552 28.7635ZM25.105 43.5712C21.3993 43.5712 17.7618 42.619 14.5736 40.8144L13.8187 40.3869L5.98709 42.3498L8.07816 35.0536L7.58507 34.3062C5.14618 30.5923 4.06827 26.2094 4.52081 21.8465C4.97335 17.4835 6.93067 13.388 10.0851 10.2037C13.2395 7.01944 17.412 4.92699 21.9468 4.25535C26.4816 3.5837 31.1214 4.37095 35.1369 6.49331C39.1523 8.61567 42.3157 11.9528 44.1296 15.9801C45.9435 20.0073 46.3051 24.4963 45.1576 28.7413C44.0101 32.9864 41.4186 36.7467 37.7904 39.4311C34.1622 42.1156 29.7031 43.5719 25.1141 43.5712H25.105ZM42.7163 6.9765C38.446 2.89679 32.7695 0.438714 26.7436 0.059906C20.7177 -0.318902 14.753 1.40738 9.96013 4.91734C5.16722 8.42731 1.87269 13.4818 0.689927 19.1397C-0.492837 24.7976 0.516767 30.6733 3.53077 35.673L0 48.0001L13.1978 44.6937C16.8471 46.5979 20.9378 47.5978 25.0959 47.6017C30.0232 47.6037 34.8405 46.2094 38.9382 43.5951C43.036 40.9808 46.23 37.2641 48.1163 32.9151C50.0026 28.5661 50.4964 23.7802 49.5351 19.1631C48.5739 14.5459 46.2009 10.3049 42.7163 6.9765Z" fill="#650C0C"/>
</g>
<defs>
<clipPath id="clip0_337_9">
<rect width="50" height="48" fill="white"/>
</clipPath>
</defs>
</svg>
